<svg viewBox="0 0 24 24">
  <g fill-rule="nonzero">
    <path d="M12 0c6.627 0 12 5.373 12 12s-5.373 12-12 12S0 18.627 0 12 5.373 0 12 0zm0 2C6.486 2 2 6.486 2 12s4.486 10 10 10 10-4.486 10-10S17.514 2 12 2z"></path><path d="M16.772 8.288l-1.06-1.06a.25.25 0 0 0-.354 0L12 10.586 8.642 7.228a.25.25 0 0 0-.354 0l-1.06 1.06a.25.25 0 0 0 0 .354L10.586 12l-3.358 3.358a.25.25 0 0 0 0 .354l1.06 1.06a.25.25 0 0 0 .354 0L12 13.414l3.358 3.358a.25.25 0 0 0 .354 0l1.06-1.06a.25.25 0 0 0 0-.354L13.414 12l3.358-3.358a.25.25 0 0 0 0-.354z"></path>
  </g>
</svg>
