<svg viewBox="0 0 160 123">
  <path d="M148.24 49.133l10.917-6.369c1.166-.681 1.111-2.393-.095-3L80.817.645a1.719 1.719 0 0 0-1.527 0L1.045 39.765c-1.207.606-1.261 2.318-.095 3l31.373 18.3v31.38c0 3.976 1.077 7.72 3.116 10.849C40.239 110.651 52.424 123 80.053 123c27.63 0 39.815-12.349 44.622-19.713 2.032-3.123 3.11-6.866 3.11-10.842v-31.38l13.637-7.957V75.27l-5.585 11.17c-.566 1.131.26 2.468 1.52 2.468h14.947c1.262 0 2.087-1.337 1.52-2.469L148.24 75.27V49.133zm-34.093 43.312c0 1.303-.32 2.51-.893 3.396-3.3 5.053-12.001 13.522-33.2 13.522-21.2 0-29.9-8.47-33.194-13.515-.58-.893-.9-2.1-.9-3.403V69.016l33.234 19.386a1.687 1.687 0 0 0 1.719 0l33.234-19.386v23.43zM80.053 73.121L26.874 42.096l53.18-26.586 53.178 26.586-53.179 31.025z" fill-rule="evenodd"></path>
</svg>