<svg viewBox="0 0 24 24">
  <path d="M12 1c-2.987 0-3.362.013-4.535.066-1.171.054-1.971.24-2.67.511a5.412 5.412 0 0 0-1.949 1.269 5.412 5.412 0 0 0-1.269 1.949c-.271.699-.457 1.499-.511 2.67C1.013 8.638 1 9.013 1 12s.013 3.362.066 4.535c.054 1.171.24 1.971.511 2.67a5.412 5.412 0 0 0 1.269 1.949 5.412 5.412 0 0 0 1.949 1.269c.699.271 1.499.457 2.67.511C8.638 22.987 9.013 23 12 23s3.362-.013 4.535-.066c1.171-.054 1.971-.24 2.67-.511a5.412 5.412 0 0 0 1.949-1.269 5.412 5.412 0 0 0 1.269-1.949c.271-.699.457-1.499.511-2.67.053-1.173.066-1.548.066-4.535s-.013-3.362-.066-4.535c-.054-1.171-.24-1.971-.511-2.67a5.412 5.412 0 0 0-1.269-1.949 5.412 5.412 0 0 0-1.949-1.269c-.699-.271-1.499-.457-2.67-.511C15.362 1.013 14.987 1 12 1m0 1.982c2.937 0 3.285.011 4.445.064 1.072.049 1.655.228 2.042.379.514.199.88.438 1.265.823.385.385.624.751.823 1.265.151.387.33.97.379 2.042.053 1.16.064 1.508.064 4.445 0 2.937-.011 3.285-.064 4.445-.049 1.072-.228 1.655-.379 2.042-.199.514-.438.88-.823 1.265a3.398 3.398 0 0 1-1.265.823c-.387.151-.97.33-2.042.379-1.16.053-1.508.064-4.445.064-2.937 0-3.285-.011-4.445-.064-1.072-.049-1.655-.228-2.042-.379a3.398 3.398 0 0 1-1.265-.823 3.398 3.398 0 0 1-.823-1.265c-.151-.387-.33-.97-.379-2.042-.053-1.16-.064-1.508-.064-4.445 0-2.937.011-3.285.064-4.445.049-1.072.228-1.655.379-2.042.199-.514.438-.88.823-1.265a3.398 3.398 0 0 1 1.265-.823c.387-.151.97-.33 2.042-.379 1.16-.053 1.508-.064 4.445-.064zm0 3.37a5.649 5.649 0 1 0 0 11.297 5.649 5.649 0 0 0 0-11.297zm0 9.315a3.667 3.667 0 1 1 0-7.335 3.667 3.667 0 0 1 0 7.335zm7.192-9.539a1.32 1.32 0 1 1-2.64 0 1.32 1.32 0 0 1 2.64 0z" fill-rule="evenodd"></path>
</svg>