<svg viewBox="0 0 24 24">
  <path d="M11.865 22.13c-1.015 0-1.978-.148-2.912-.429.387-.613.828-1.402 1.042-2.19 0 0 .118-.456.72-2.82.347.68 1.389 1.28 2.5 1.28 3.3 0 5.545-3.005 5.545-7.042 0-3.033-2.577-5.88-6.508-5.88-4.865 0-7.324 3.502-7.324 6.414 0 1.764.668 3.343 2.099 3.932.229.093.44 0 .51-.269.051-.174.157-.628.211-.815.067-.268.04-.347-.147-.574-.414-.495-.682-1.123-.682-2.02 0-2.592 1.94-4.917 5.054-4.917 2.752 0 4.276 1.683 4.276 3.944 0 2.951-1.31 5.451-3.261 5.451-1.071 0-1.872-.882-1.618-1.978.308-1.296.91-2.7.91-3.636 0-.84-.457-1.55-1.39-1.55-1.097 0-1.979 1.137-1.979 2.661 0 0 0 .976.335 1.629-1.125 4.759-1.325 5.589-1.325 5.589-.187.774-.2 1.643-.173 2.365a10.267 10.267 0 0 1-6.148-9.41C1.6 6.197 6.199 1.6 11.865 1.6S22.13 6.197 22.13 11.865 17.53 22.13 11.865 22.13" fill-rule="evenodd"></path>
</svg>