<svg viewBox="0 0 25 24">
  <path d="M21.863 6.828c.015.212.015.424.015.636 0 6.464-4.92 13.913-13.913 13.913-2.77 0-5.343-.802-7.508-2.195.393.045.772.061 1.18.061a9.78 9.78 0 0 0 6.07-2.09 4.896 4.896 0 0 1-4.571-3.391c.302.046.605.076.923.076.439 0 .878-.061 1.287-.167a4.89 4.89 0 0 1-3.92-4.799v-.061c.65.364 1.408.59 2.209.621a4.888 4.888 0 0 1-2.178-4.071c0-.909.24-1.741.664-2.468a13.904 13.904 0 0 0 10.084 5.116 5.426 5.426 0 0 1-.121-1.12A4.886 4.886 0 0 1 16.972 2c1.408 0 2.68.59 3.573 1.544a9.593 9.593 0 0 0 3.103-1.181 4.868 4.868 0 0 1-2.15 2.695 9.789 9.789 0 0 0 2.816-.757 10.522 10.522 0 0 1-2.451 2.527z" fill-rule="evenodd"></path>
</svg>